<svg width="16" height="16" viewBox="0 0 16 16" fill="none" xmlns="http://www.w3.org/2000/svg">
<path fill-rule="evenodd" clip-rule="evenodd" d="M0 11.5945V15.9832H4.38877L13.1663 7.20569L8.77742 2.81689L0 11.5945ZM3.82958 14.6328L2.70071 14.6329V13.2825H1.35039V12.1535L2.31043 11.1935L4.78962 13.6726L3.82958 14.6328ZM9.34721 4.84249C9.34721 4.68785 9.26984 4.61044 9.11531 4.61044C9.04473 4.61044 8.98491 4.63505 8.9358 4.68427L3.21766 10.4023C3.16848 10.4516 3.14387 10.5113 3.14387 10.5817C3.14387 10.7362 3.22128 10.8137 3.37589 10.8137C3.44617 10.8137 3.506 10.7891 3.55525 10.74L9.27335 5.02193C9.32268 4.9726 9.34721 4.91292 9.34721 4.84249Z" fill="#8696A6"/>
<path d="M15.5926 2.86943L13.1135 0.40085C12.8463 0.133727 12.5262 0 12.1534 0C11.7735 0 11.4572 0.133727 11.204 0.40085L9.45276 2.1416L13.8416 6.53033L15.5929 4.77912C15.8531 4.51887 15.9831 4.20238 15.9831 3.82958C15.983 3.46394 15.853 3.14383 15.5926 2.86943Z" fill="#8696A6"/>
</svg>
