<svg width="16" height="16" viewBox="0 0 16 16" fill="none" xmlns="http://www.w3.org/2000/svg">
<rect opacity="0.01" width="16" height="16" fill="#D4D4D4"/>
<path d="M14.7324 12.2846C14.9108 12.4629 15 12.6672 14.9999 12.8964C15 13.1256 14.9102 13.3296 14.7317 13.508L13.5077 14.732C13.3291 14.9106 13.1254 15.0003 12.8963 15C12.6673 14.9999 12.4628 14.9108 12.2845 14.7325L8.00017 10.4482L3.71591 14.7324C3.53731 14.911 3.33339 15.0004 3.10388 14.9997C2.8751 15.0002 2.67111 14.9108 2.49224 14.7319L1.26824 13.5079C1.08977 13.3294 1.00034 13.1254 1.0002 12.8961C0.9998 12.6668 1.08923 12.463 1.26783 12.2844L5.55216 8.00007L1.26777 3.7157C1.0893 3.53723 1.00027 3.33271 1 3.1036C0.999599 2.87435 1.08903 2.6705 1.26763 2.4919L2.49164 1.2679C2.6701 1.08943 2.87423 1.00013 3.10361 1C3.33292 0.999799 3.53711 1.08943 3.71558 1.2679L7.99997 5.55227L12.2844 1.2679C12.4628 1.08943 12.6667 0.999933 12.8963 1C13.1259 0.999933 13.3296 1.08923 13.5083 1.2679L14.7323 2.4919C14.9111 2.6707 15.0007 2.87469 15 3.10366C15.0003 3.33351 14.9111 3.5373 14.7324 3.71597L10.4481 8.00027L14.7324 12.2846Z" fill="#8696A6"/>
</svg>
