<svg width="15" height="20" viewBox="0 0 15 20" fill="none" xmlns="http://www.w3.org/2000/svg">
<path fill-rule="evenodd" clip-rule="evenodd" d="M0 7.03125C0 3.15422 3.15422 0 7.03125 0C10.9083 0 14.0625 3.15422 14.0625 7.03125C14.0625 8.30231 13.7196 9.54797 13.0707 10.6336L7.63156 19.7152C7.5266 19.8905 7.33785 19.9984 7.13352 20H7.12887C6.92629 20 6.73793 19.8953 6.63102 19.723L1.04957 10.7286C0.362852 9.61953 0 8.34117 0 7.03125ZM7.12 18.2885L12.0651 10.032C12.605 9.12844 12.8945 8.09066 12.8945 7.03125C12.8945 3.80039 10.2621 1.16406 7.03125 1.16406C3.80039 1.16406 1.16406 3.80039 1.16406 7.03125C1.16406 8.12305 1.47398 9.18805 2.04559 10.1112L7.12 18.2885Z" fill="black"/>
<path fill-rule="evenodd" clip-rule="evenodd" d="M3.51562 7.03125C3.51562 5.09273 5.09273 3.51562 7.03125 3.51562C8.96977 3.51562 10.5469 5.09273 10.5469 7.03125C10.5469 8.93621 9.01965 10.5469 7.03125 10.5469C5.06707 10.5469 3.51562 8.95738 3.51562 7.03125ZM4.67969 7.03125C4.67969 8.32684 5.73215 9.38281 7.03125 9.38281C8.35094 9.38281 9.37891 8.30793 9.37891 7.03125C9.37891 5.73891 8.32359 4.67969 7.03125 4.67969C5.73891 4.67969 4.67969 5.73891 4.67969 7.03125Z" fill="black"/>
</svg>
