<svg width="20" height="15" viewBox="0 0 20 15" fill="none" xmlns="http://www.w3.org/2000/svg">
<path fill-rule="evenodd" clip-rule="evenodd" d="M16.3029 5.04123L19.0957 7.34301C19.2661 7.48332 19.2928 7.73388 19.1525 7.9076L18.3006 8.94323C18.1603 9.11361 17.9064 9.137 17.7361 8.99669L9.87859 2.52564C9.72826 2.40537 9.51445 2.40537 9.36746 2.52564L1.50999 8.99669C1.33962 9.137 1.08572 9.11361 0.945407 8.94323L0.0935136 7.9076C-0.0467982 7.73722 -0.0234129 7.48332 0.146966 7.34301L8.60242 0.377532C9.19374 -0.110219 10.049 -0.110219 10.6403 0.377532L13.6303 2.83967V0.41428C13.6303 0.19379 13.8107 0.0133891 14.0312 0.0133891H15.902C16.1225 0.0133891 16.3029 0.19379 16.3029 0.41428V5.04123ZM16.3029 14.1648V9.37753C16.3029 9.25726 16.2494 9.14368 16.1592 9.06684L9.87859 3.89535C9.72826 3.77508 9.51445 3.77508 9.36746 3.89535L3.08683 9.06684C2.99329 9.14368 2.93984 9.25726 2.93984 9.37753V14.1648C2.93984 14.6092 3.2973 14.9666 3.74162 14.9666H7.6169C7.83739 14.9666 8.01779 14.7862 8.01779 14.5657V10.8241C8.01779 10.6036 8.19819 10.4232 8.41868 10.4232H10.824C11.0445 10.4232 11.2249 10.6036 11.2249 10.8241V14.5657C11.2249 14.7862 11.4053 14.9666 11.6258 14.9666H15.5011C15.9454 14.9666 16.3029 14.6092 16.3029 14.1648Z" fill="#7F7F7F"/>
</svg>
