<svg width="18" height="14" viewBox="0 0 18 14" fill="none" xmlns="http://www.w3.org/2000/svg">
<path d="M6.98948 12.9347C6.9676 12.8765 6.96007 12.827 6.96749 12.787C6.97487 12.7472 6.94943 12.7142 6.8911 12.6888C6.83277 12.6634 6.80366 12.6433 6.80366 12.6289C6.80366 12.6143 6.76185 12.6034 6.67804 12.5962C6.59427 12.5889 6.55246 12.5852 6.55246 12.5852H6.41055H6.29044H3.14518C2.66467 12.5852 2.25327 12.4142 1.91104 12.0718C1.56888 11.7296 1.39782 11.3183 1.39782 10.8379V3.14942C1.39782 2.66891 1.56884 2.25767 1.91104 1.91547C2.25327 1.57324 2.66467 1.40206 3.14518 1.40206H6.63986C6.73454 1.40206 6.80897 1.37857 6.86371 1.33114C6.91822 1.28383 6.95456 1.21279 6.97284 1.11816C6.99105 1.02353 7.00203 0.938072 7.0057 0.861608C7.0093 0.78522 7.00754 0.688673 7.00019 0.572198C6.99296 0.455761 6.98933 0.382968 6.98933 0.353706C6.98933 0.259072 6.95471 0.177329 6.88559 0.108017C6.81639 0.039012 6.73454 0.00439453 6.6399 0.00439453H3.14518C2.27886 0.00439453 1.53801 0.312012 0.922738 0.927209C0.307617 1.54241 0 2.28314 0 3.14954V10.8378C0 11.7041 0.307617 12.4451 0.922738 13.06C1.53801 13.6755 2.27886 13.9832 3.14518 13.9832H6.64002C6.73469 13.9832 6.80916 13.9594 6.86386 13.9122C6.91837 13.8649 6.95471 13.7939 6.97299 13.6991C6.9912 13.6046 7.00218 13.5188 7.00585 13.4426C7.00945 13.3661 7.00769 13.2698 7.00034 13.1533C6.99304 13.0367 6.98948 12.964 6.98948 12.9347Z" fill="#A7A7A7"/>
<path d="M16.9166 6.50228L10.9756 0.561113C10.8374 0.422949 10.6735 0.353638 10.4842 0.353638C10.2949 0.353638 10.1311 0.422949 9.99266 0.561113C9.85431 0.699468 9.78519 0.863452 9.78519 1.05264V4.1979H4.89261C4.70319 4.1979 4.53943 4.26721 4.40108 4.40538C4.26272 4.54373 4.1936 4.7076 4.1936 4.89691V9.09063C4.1936 9.2799 4.26272 9.44377 4.40108 9.58205C4.53959 9.72013 4.7033 9.78964 4.89261 9.78964H9.78523V12.9349C9.78523 13.124 9.85435 13.288 9.9927 13.4263C10.1311 13.5646 10.2949 13.6339 10.4843 13.6339C10.6735 13.6339 10.8374 13.5646 10.9757 13.4263L16.9166 7.48538C17.055 7.34691 17.1241 7.18327 17.1241 6.99392C17.1241 6.80465 17.055 6.64063 16.9166 6.50228Z" fill="#A7A7A7"/>
</svg>
